PathFileType	4	(X/Y/Z)	C:/Users/CLatella/Desktop/xsens/test 22settembre2016/Meri Veloce/Meri-002_My MVN System.trc	
DataRate	CameraRate	NumFrames	NumMarkers	Units	OrigDataRate	OrigDataStartFrame	OrigNumFrames	
240.00	240.00	4	64	mm	240.00	224	597	
Frame#	Time	pHipOrigin			pRightASI			pLeftASI			pRightCSI			pLeftCSI			pRightIschialTub			pLeftIschialTub			pSacrum			pL5SpinalProcess			pL3SpinalProcess			pT12SpinalProcess			pPX			pIJ			pT4SpinalProcess			pT8SpinalProcess			pC7SpinalProcess			pTopOfHead			pRightAuricularis			pLeftAuricularis			pBackOfHead			pRightAcromion			pLeftAcromion			pRightArmLatEpicondyle			pRightArmMedEpicondyle			pLeftArmLatEpicondyle			pLeftArmMedEpicondyle			pRightUlnarStyloid			pRightRadialStyloid			pRightOlecranon			pLeftUlnarStyloid			pLeftRadialStyloid			pLeftOlecranon			pRightTopOfHand			pRightPinky			pRightBallHand			pLeftTopOfHand			pLeftPinky			pLeftBallHand			pRightGreaterTrochanter			pRightKneeLatEpicondyle			pRightKneeMedEpicondyle			pRightPatella			pLeftGreaterTrochanter			pLeftKneeLatEpicondyle			pLeftKneeMedEpicondyle			pLeftPatella			pRightLatMalleolus			pRightMedMalleolus			pRightTibialTub			pLeftLatMalleolus			pLeftMedMalleolus			pLeftTibialTub			pRightHeelFoot			pRightFirstMetatarsal			pRightFifthMetatarsal			pRightPivotFoot			pRightHeelCenter			pRightToe			pLeftHeelFoot			pLeftFirstMetatarsal			pLeftFifthMetatarsal			pLeftPivotFoot			pLeftHeelCenter			pLeftToe			
		X1	Y1	Z1	X2	Y2	Z2	X3	Y3	Z3	X4	Y4	Z4	X5	Y5	Z5	X6	Y6	Z6	X7	Y7	Z7	X8	Y8	Z8	X9	Y9	Z9	X10	Y10	Z10	X11	Y11	Z11	X12	Y12	Z12	X13	Y13	Z13	X14	Y14	Z14	X15	Y15	Z15	X16	Y16	Z16	X17	Y17	Z17	X18	Y18	Z18	X19	Y19	Z19	X20	Y20	Z20	X21	Y21	Z21	X22	Y22	Z22	X23	Y23	Z23	X24	Y24	Z24	X25	Y25	Z25	X26	Y26	Z26	X27	Y27	Z27	X28	Y28	Z28	X29	Y29	Z29	X30	Y30	Z30	X31	Y31	Z31	X32	Y32	Z32	X33	Y33	Z33	X34	Y34	Z34	X35	Y35	Z35	X36	Y36	Z36	X37	Y37	Z37	X38	Y38	Z38	X39	Y39	Z39	X40	Y40	Z40	X41	Y41	Z41	X42	Y42	Z42	X43	Y43	Z43	X44	Y44	Z44	X45	Y45	Z45	X46	Y46	Z46	X47	Y47	Z47	X48	Y48	Z48	X49	Y49	Z49	X50	Y50	Z50	X51	Y51	Z51	X52	Y52	Z52	X53	Y53	Z53	X54	Y54	Z54	X55	Y55	Z55	X56	Y56	Z56	X57	Y57	Z57	X58	Y58	Z58	X59	Y59	Z59	X60	Y60	Z60	X61	Y61	Z61	X62	Y62	Z62	X63	Y63	Z63	X64	Y64	Z64	

224	0.929	95.31627	199.50266	928.35637	194.04026	83.03841	954.81640	186.92412	322.48169	950.25606	205.51630	105.68980	1033.34458	199.65300	303.58882	1029.53594	26.66049	147.78531	920.58874	23.70378	246.70977	918.68442	52.81984	199.35231	986.18758	126.08608	201.85800	1028.28309	204.61425	199.75322	1100.14615	280.98754	195.89447	1155.12088	417.19659	198.65072	1073.13486	515.97070	190.38196	1122.49686	436.49036	184.41843	1233.09780	362.62276	190.28173	1199.97264	477.43326	181.56195	1252.24124	723.64189	190.88310	1297.19323	635.14109	120.02232	1269.88126	627.52380	250.31795	1268.42796	602.96809	184.01752	1311.87654	489.71112	23.00219	1235.60349	457.08709	362.77310	1214.00448	311.20610	-29.41674	973.80950	297.77563	30.01811	972.60677	272.46821	386.22632	958.57493	265.20172	325.68896	957.82323	335.61148	17.33934	745.59169	373.34710	43.54881	755.76477	286.24948	-15.03411	968.84824	346.93717	341.62512	741.83316	380.21267	313.06031	759.02216	252.52295	372.59539	950.25606	520.98207	16.13661	710.31164	441.35139	-2.90659	700.89026	380.76392	22.10014	723.64189	522.33514	381.61586	713.16812	442.55412	394.29462	729.55530	385.57484	355.00548	734.61679	82.03613	52.92007	901.84622	99.47570	73.01567	521.68366	119.42096	143.97667	520.63127	149.68963	99.82650	525.24173	101.48025	349.49297	904.45213	60.13644	361.77083	525.74287	50.41439	289.05584	518.72695	95.81740	317.67077	520.28048	125.08381	57.22985	96.61922	119.92209	119.82187	93.51217	177.40251	112.40504	489.05964	54.47360	379.56119	97.22059	60.88815	317.11952	93.31172	121.57585	330.34954	488.20770	88.25023	87.44841	-0.15034	232.17679	120.12255	7.91797	232.22690	53.42121	8.61956	251.06966	87.69898	9.42138	127.48926	87.54864	6.36444	327.89397	87.79921	13.02956	20.64685	339.77091	1.40318	168.43216	339.37000	4.30978	153.94930	404.46771	4.00910	179.85808	375.15119	4.56035	59.18428	348.39047	6.46467	254.87830	391.78894	5.01137 
225	0.933	95.51672	199.55277	928.35637	194.19060	83.08852	954.81640	187.12457	322.53180	950.20594	205.71676	105.73992	1033.29446	199.90357	303.63893	1029.48582	26.81083	147.83543	920.63886	23.90424	246.75988	918.73454	52.97019	199.40243	986.23770	126.28653	201.95823	1028.28309	204.91494	199.80334	1100.09603	281.28822	195.94458	1155.02065	417.44715	198.80106	1072.93440	516.27138	190.53230	1122.19617	436.84116	184.51866	1232.89735	362.97356	190.38196	1199.77219	477.83417	181.71229	1251.99067	723.99268	191.03344	1296.99277	635.54199	120.17266	1269.58058	627.87460	250.46829	1268.17739	603.31888	184.11775	1311.57586	490.06191	23.15253	1235.35292	457.38778	362.87333	1213.80403	311.30633	-29.31652	973.75938	297.87586	30.11834	972.55665	272.61855	386.32654	958.52482	265.30195	325.78919	957.77311	335.46113	17.38946	745.49146	373.24687	43.64904	755.61443	286.34970	-14.98400	968.79813	346.88706	341.67523	741.73293	380.16256	313.16054	758.87182	252.62318	372.64550	950.25606	520.88184	16.18673	710.26153	441.20105	-2.85648	700.79004	380.61358	22.15026	723.54166	522.33514	381.66597	713.06790	442.50401	394.34474	729.45508	385.52473	355.05559	734.46645	82.18647	52.97019	901.89633	99.57593	73.01567	521.68366	119.52118	143.92656	520.63127	149.78986	99.77638	525.24173	101.68071	349.54309	904.45213	60.28679	361.87106	525.74287	50.51461	289.15607	518.72695	95.96774	317.72088	520.28048	125.08381	57.17974	96.61922	119.92209	119.77175	93.51217	177.50274	112.40504	489.05964	54.47360	379.61131	97.22059	60.88815	317.16963	93.31172	121.67607	330.39965	488.20770	88.25023	87.44841	-0.15034	232.17679	120.07243	7.96808	232.22690	53.32098	8.61956	251.06966	87.59875	9.42138	127.48926	87.49853	6.41455	327.84385	87.69898	13.07968	20.64685	339.82103	1.40318	168.43216	339.37000	4.35989	153.99941	404.51782	4.00910	179.90820	375.15119	4.56035	59.23440	348.39047	6.46467	254.92841	391.83905	5.06148 
226	0.937	95.66706	199.60288	928.35637	194.34094	83.13864	954.76629	187.27491	322.63203	950.15583	205.91721	105.79003	1033.24435	200.10402	303.73916	1029.43571	26.96117	147.88554	920.68897	24.05458	246.86011	918.78465	53.17064	199.45254	986.23770	126.48699	202.00834	1028.23298	205.16550	199.90357	1100.04592	281.58890	196.04481	1154.92042	417.64761	198.95141	1072.68384	516.52195	190.68264	1121.94561	437.19195	184.66900	1232.64678	363.32435	190.48219	1199.62185	478.18496	181.81252	1251.74010	724.29336	191.23389	1296.74221	635.89279	120.32300	1269.33001	628.22539	250.61863	1267.92683	603.66968	184.26809	1311.32529	490.41271	23.25276	1235.05224	457.68846	363.02367	1213.65368	311.45667	-29.21629	973.65916	298.02620	30.21856	972.45643	272.76889	386.42677	958.42459	265.45229	325.83930	957.72300	335.31079	17.48968	745.39123	373.09653	43.69915	755.46409	286.50005	-14.88377	968.74801	346.83695	341.77546	741.58259	380.11245	313.26076	758.67137	252.77352	372.74573	950.20594	520.73150	16.28695	710.21141	441.10082	-2.75625	700.68981	380.51335	22.25048	723.39132	522.28502	381.71608	712.96767	442.50401	394.44496	729.30474	385.47461	355.15582	734.31611	82.33682	53.02030	901.89633	99.72627	72.96555	521.68366	119.62141	143.92656	520.63127	149.89009	99.77638	525.24173	101.83105	349.59320	904.45213	60.43713	361.92117	525.74287	50.61484	289.20619	518.72695	96.11808	317.77100	520.28048	125.08381	57.17974	96.61922	119.92209	119.72164	93.56229	177.60297	112.35492	489.00952	54.47360	379.66142	97.22059	60.83804	317.21975	93.31172	121.82641	330.44976	488.20770	88.25023	87.39830	-0.15034	232.17679	120.02232	7.96808	232.22690	53.27087	8.66967	251.11977	87.54864	9.47149	127.48926	87.49853	6.41455	327.84385	87.64887	13.12979	20.69696	339.87114	1.40318	168.43216	339.37000	4.35989	153.99941	404.51782	4.00910	179.90820	375.20130	4.61046	59.23440	348.44058	6.46467	254.92841	391.83905	5.06148 
227	0.942	95.81740	199.65300	928.35637	194.54140	83.23886	954.71618	187.42525	322.68214	950.10572	206.11766	105.89026	1033.19424	200.30448	303.78927	1029.38560	27.11151	147.93565	920.73908	24.15481	246.91022	918.83476	53.37109	199.55277	986.28781	126.68744	202.05845	1028.23298	205.36596	199.95368	1099.99580	281.83947	196.14504	1154.82020	417.89818	199.10175	1072.48338	516.77252	190.88310	1121.64492	437.54275	184.76923	1232.44632	363.62504	190.58242	1199.47151	478.53576	181.96286	1251.48953	724.64416	191.38424	1296.49164	636.24359	120.52346	1269.02933	628.52608	250.81909	1267.67626	603.97036	184.41843	1311.02461	490.81362	23.40310	1234.80167	457.98914	363.17401	1213.50334	311.60701	-29.06595	973.50881	298.17654	30.36890	972.35620	272.91923	386.47689	958.37448	265.65275	325.93953	957.62277	335.16045	17.58991	745.19078	372.99630	43.79938	755.26363	286.65039	-14.73343	968.64779	346.78683	341.87569	741.38214	380.11245	313.36099	758.47091	252.97398	372.79584	950.10572	520.63127	16.38718	710.11119	441.00060	-2.65603	700.53947	380.41313	22.35071	723.24098	522.28502	381.76620	712.81733	442.50401	394.49508	729.10428	385.47461	355.25605	734.11565	82.53727	53.07041	901.94645	99.82650	72.91544	521.73377	119.72164	143.87644	520.63127	149.99032	99.72627	525.24173	102.03150	349.64331	904.45213	60.53735	361.97128	525.74287	50.76518	289.25630	518.72695	96.21831	317.82111	520.28048	125.08381	57.12962	96.61922	119.87198	119.72164	93.56229	177.70319	112.35492	489.00952	54.47360	379.71154	97.22059	60.83804	317.26986	93.31172	121.92664	330.49988	488.15759	88.25023	87.39830	-0.15034	232.17679	119.97221	8.01819	232.17679	53.22075	8.66967	251.06966	87.49853	9.47149	127.48926	87.44841	6.41455	327.84385	87.54864	13.12979	20.69696	339.87114	1.40318	168.43216	339.47023	4.41001	153.99941	404.56793	4.00910	179.90820	375.25142	4.61046	59.23440	348.44058	6.46467	254.92841	391.93928	5.11160 
